<svg xmlns="http://www.w3.org/2000/svg" width="411.54" height="461.729" viewBox="0 0 411.54 461.729"><path d="M.431,0l0,0L0,.4,113.307,136.856a77.077,77.077,0,0,1,8.913,11.834c4.066,6.6,8.913,16.732,8.913,27.572,0,5.924-1.546,15.487-8.913,27.4a77.621,77.621,0,0,1-8.913,11.819L0,352.042l.433.478L135.484,237.965a76.569,76.569,0,0,1,11.741-9.046c6.539-4.127,16.581-9.046,27.292-9.046,5.852,0,15.306,1.569,27.11,9.046a77.05,77.05,0,0,1,11.716,9.046L348.436,352.52l.556-.6L235.459,215.482a77.43,77.43,0,0,1-8.852-11.819c-4.038-6.577-8.852-16.669-8.852-27.4,0-5.983,1.536-15.623,8.852-27.572a76.832,76.832,0,0,1,8.852-11.834L348.992.438,348.439,0,213.344,114.434a77.155,77.155,0,0,1-11.716,9.025c-6.516,4.117-16.508,9.025-27.11,9.025-5.912,0-15.446-1.566-27.292-9.025a77.047,77.047,0,0,1-11.741-9.025L.433,0Z" transform="translate(62.547)" fill="#b0b9c0"/><path d="M.12,0h0L0,.11,31.536,38.09a21.453,21.453,0,0,1,2.481,3.294A15.248,15.248,0,0,1,36.5,49.058a14.6,14.6,0,0,1-2.481,7.627,21.6,21.6,0,0,1-2.481,3.29L0,97.982l.121.133L37.708,66.232a21.312,21.312,0,0,1,3.268-2.518,14.87,14.87,0,0,1,7.6-2.518,14.2,14.2,0,0,1,7.545,2.518,21.444,21.444,0,0,1,3.261,2.518l37.6,31.883.155-.167-31.6-37.974a21.55,21.55,0,0,1-2.464-3.29,15.219,15.219,0,0,1-2.464-7.627,14.784,14.784,0,0,1,2.464-7.674,21.384,21.384,0,0,1,2.464-3.294L97.133.122,96.979,0,59.379,31.85a21.474,21.474,0,0,1-3.261,2.512,14.781,14.781,0,0,1-7.545,2.512,14.35,14.35,0,0,1-7.6-2.512,21.444,21.444,0,0,1-3.268-2.512L.121,0Z" transform="translate(0 363.614)" fill="#b0b9c0"/></svg>