<svg xmlns="http://www.w3.org/2000/svg" xmlns:xlink="http://www.w3.org/1999/xlink" viewBox="0 0 24 24"><defs><path id="a" d="M4.28 9.967l3 3a.75.75 0 0 1-1.06 1.06L4.5 12.308v5.942a2.25 2.25 0 0 0 2.25 2.25h10.5a2.25 2.25 0 0 0 2.25-2.25v-.75a.75.75 0 1 1 1.5 0v.75A3.75 3.75 0 0 1 17.25 22H6.75A3.75 3.75 0 0 1 3 18.25v-5.944l-1.72 1.721a.75.75 0 0 1-1.06-1.06l3-3a.75.75 0 0 1 1.06 0zM12 6.75a.75.75 0 0 1 .75.75l.001.451C14.023 8.215 15 9.134 15 10.312a.75.75 0 1 1-1.5 0c0-.463-.632-.937-1.5-.937s-1.5.474-1.5.937c0 .464.632.938 1.5.938 1.618 0 3 1.036 3 2.437 0 1.178-.977 2.098-2.249 2.362l-.001.451a.75.75 0 1 1-1.5 0v-.451C9.977 15.786 9 14.865 9 13.687a.75.75 0 1 1 1.5 0c0 .464.632.938 1.5.938s1.5-.474 1.5-.938c0-.463-.632-.937-1.5-.937-1.618 0-3-1.037-3-2.438 0-1.178.977-2.098 2.25-2.361V7.5a.75.75 0 0 1 .75-.75zM17.25 2A3.75 3.75 0 0 1 21 5.75v5.936l1.72-1.72a.75.75 0 0 1 1.06 1.061l-3 3a.75.75 0 0 1-1.06 0l-3-3a.75.75 0 0 1 1.06-1.06l1.72 1.719V5.75a2.25 2.25 0 0 0-2.25-2.25H6.75A2.25 2.25 0 0 0 4.5 5.75v.75a.75.75 0 0 1-1.5 0v-.75A3.75 3.75 0 0 1 6.75 2h10.5z"/></defs><use fill="#9BA4AB" fill-rule="nonzero" xlink:href="#a"/></svg>