<svg xmlns="http://www.w3.org/2000/svg" width="712.703" height="455.486" viewBox="0 0 712.703 455.486"><ellipse cx="56.186" cy="51.07" rx="56.186" ry="51.07" transform="translate(121.901 86.935)" fill="#ff6584"/><path d="M849.7,276.46V410.783c0,109.5-112.341,198.255-250.915,198.249H137V474.709c0-71.777,48.281-134.651,120.59-169.442a280.746,280.746,0,0,1,39.16-15.313q12-3.7,24.444-6.4c.162-.042.331-.079.493-.109q3.671-.794,7.389-1.5c.139-.03.269-.055.408-.079a313.925,313.925,0,0,1,46.541-5.187c1.855-.067,3.71-.122,5.58-.152.67-.018,1.347-.03,2.032-.03q2.124-.036,4.272-.037Z" transform="translate(-137 -154.251)" fill="#172633"/><path d="M472.614,681c-184.964,0-334.975,39.042-335.6,87.266H808.218C807.589,720.042,657.578,681,472.614,681Z" transform="translate(-137.003 -312.78)" fill="#f2f2f2"/><g transform="translate(215.063 407.309)" opacity="0.1"><ellipse cx="53.524" cy="13.514" rx="53.524" ry="13.514"/></g><g transform="translate(351.849 382.984)" opacity="0.1"><ellipse cx="53.524" cy="13.514" rx="53.524" ry="13.514"/></g><g transform="translate(220.97 408.726)" opacity="0.1"><ellipse cx="48.5" cy="12.5" rx="48.5" ry="12.5" transform="translate(0.03 0)"/></g><g transform="translate(356.34 383.726)" opacity="0.1"><ellipse cx="48" cy="12.5" rx="48" ry="12.5" transform="translate(-0.34 0)"/></g><ellipse cx="4" cy="5.5" rx="4" ry="5.5" transform="translate(89 169.726)" fill="#f2f2f2"/><ellipse cx="5" cy="4.5" rx="5" ry="4.5" transform="translate(564 338.726)" fill="#f2f2f2"/><ellipse cx="5" cy="3.5" rx="5" ry="3.5" transform="translate(311 202.726)" fill="#f2f2f2"/><ellipse cx="3.5" cy="2" rx="3.5" ry="2" transform="translate(597 178.726)" fill="#ff6584"/><ellipse cx="2.5" cy="1" rx="2.5" ry="1" transform="translate(101 300.726)" fill="#ff6584"/><path d="M92.676,580.608H91.457V579.5h-.238v1.108H90v.216h1.219v1.108h.238v-1.108h1.219Z" transform="translate(-29.785 -227.091)" fill="#f2f2f2"/><path d="M677.676,432.608h-1.219V431.5h-.238v1.108H675v.217h1.219v1.108h.238v-1.108h1.219Z" transform="translate(-155.187 -169.094)" fill="#f2f2f2"/><path d="M828.676,402.608h-1.219V401.5h-.238v1.108H826v.216h1.219v1.108h.238v-1.108h1.219Z" transform="translate(-180.202 -157.338)" fill="#f2f2f2"/><path d="M503.676,482.608h-1.219V481.5h-.238v1.108H501v.216h1.219v1.108h.238v-1.108h1.219Z" transform="translate(-115.183 -188.687)" fill="#f2f2f2"/><path d="M784.676,492.608h-1.219V491.5h-.238v1.108H782v.216h1.219v1.108h.238v-1.108h1.219Z" transform="translate(-165.641 -192.606)" fill="#f2f2f2"/><path d="M445.676,535.608h-1.219V534.5h-.238v1.108H443v.216h1.219v1.108h.238v-1.108h1.219Z" transform="translate(-101.848 -209.457)" fill="#f2f2f2"/><path d="M573.676,537.608h-1.219V536.5h-.238v1.108H571v.216h1.219v1.108h.238v-1.108h1.219Z" transform="translate(-131.276 -210.24)" fill="#f2f2f2"/><path d="M94.676,367.608H93.457V366.5h-.238v1.108H92v.216h1.219v1.108h.238v-1.108h1.219Z" transform="translate(-30.447 -143.622)" fill="#f2f2f2"/><rect width="1.923" height="35.31" transform="translate(521.268 140.288)" fill="#e6e6e6"/><path d="M603,385.046,585.3,422.1l3.462,5.244-1.154,1.748,8.077,3.846v-2.1l3.077-.7,13.077-21.675Z" transform="translate(-132.185 -150.89)" fill="#e6e6e6"/><path d="M725.39,532.407s-13.077,18.529,1.539,21.326,2.692-19.578,2.692-19.578Z" transform="translate(-269.916 -254.55)" fill="#e6e6e6"/><path d="M751.274,515.551l-4.615,13.635-1.923,17.48-3.462,6.293,3.846,28.318,6.154,5.594,2.693,27.968v12.586l7.308,11.537L751.864,651.1a3.574,3.574,0,0,0-.336,3.957A4.3,4.3,0,0,0,755.2,657.2a18.959,18.959,0,0,0,8.38-2.159c11.154-5.244,10.77-10.139,10.77-10.139s6.923,0,7.308-4.894-4.231-39.855-4.231-39.855L773.2,585.122v-40.9h1.539l.769,34.96,3.462,12.935.385,5.594,5,55.936s22.309,5.594,23.462,1.049-8.462-7.342-8.462-7.342l5.769-10.139V617.635l-1.923-4.2-3.462-28.318,5.77-5.594,3.077-3.5V548.065l-3.846-10.838-1.154-9.09-6.154-13.984S769.352,505.763,751.274,515.551Z" transform="translate(-268.78 -246.085)" fill="#fff"/><path d="M802.037,371.561c0,11.547-8.2,21.771-20.3,25.3s-25.312-.447-32.7-9.836a24.639,24.639,0,0,1,.31-31.311l.008-.007c7.52-9.195,20.678-12.972,32.644-9.371s20.044,13.769,20.042,25.225Z" transform="translate(-270.361 -181.105)" fill="#f33"/><g transform="translate(477.956 165.284)" opacity="0.1"><path d="M800.36,361.449l-2.385,12.414c-17.92-42.281-46.424-16.309-46.917-15.855a30.489,30.489,0,0,1,25.694-10.637C786.759,348.069,795.671,353.384,800.36,361.449Z" transform="translate(-751.059 -347.293)"/></g><path d="M801.51,359.149l-2.385,12.414c-17.92-42.281-46.425-16.309-46.917-15.854A30.489,30.489,0,0,1,777.9,345.072c10.006.7,18.918,6.013,23.607,14.077Z" transform="translate(-273.357 -181.108)" fill="#fff"/><path d="M795.026,359.567l4.007,12.643s-8.318,22.661-46.891,23.451l-1.264,3.237-4.231,1.049-1.923,7.342,5.385,46.5s-2.308,4.545,1.539,4.2c0,0,25.385-7.691,47.309-.7,0,0,4.616,1.748,3.462-2.1,0,0,15.385-8.74,14.231-17.83s1.154-51.392,1.154-51.392,2.308-12.236-4.616-15.033C813.187,370.93,803.019,357.993,795.026,359.567Z" transform="translate(-268.761 -186.767)" fill="#fff"/><path d="M798.107,504.918s-24.1,2.2-17.427,14.346,18.549-10.247,18.549-10.247Z" transform="translate(-282.873 -243.778)" fill="#e6e6e6"/><path d="M817.982,415.2a13.888,13.888,0,0,0-2.693,11.887c1.539,7.342,7.308,23.773,7.308,23.773l-20.385,17.13,6.154,7.691,27.693-12.935,6.154-3.5h0a134.409,134.409,0,0,0-11.3-41.134l-1.007-2.217S822.6,413.1,817.982,415.2Z" transform="translate(-285.607 -208.315)" fill="#e6e6e6"/><ellipse cx="7.116" cy="6.468" rx="7.116" ry="6.468" transform="translate(521.326 181.541)" fill="#e6e6e6"/><ellipse cx="5.192" cy="4.72" rx="5.192" ry="4.72" transform="translate(517.339 135.394)" fill="#e6e6e6"/><path d="M479.676,351.608h-1.219V350.5h-.238v1.108H477v.217h1.219v1.108h.238v-1.108h1.219Z" transform="translate(-109.665 -137.352)" fill="#f2f2f2"/><path d="M643.676,295.608h-1.219V294.5h-.238v1.108H641v.217h1.219v1.108h.238v-1.108h1.219Z" transform="translate(-147.37 -115.407)" fill="#f2f2f2"/><path d="M625.676,312.608h-1.219V311.5h-.238v1.108H623v.216h1.219v1.108h.238v-1.108h1.219Z" transform="translate(-143.231 -122.069)" fill="#f2f2f2"/><ellipse cx="3.5" cy="3" rx="3.5" ry="3" transform="translate(424 159.726)" fill="#f2f2f2"/><path d="M444.092,255.015c0,169.694-23.476,169.694-52.427,169.694-14.967,0-28.471,0-38.019-23.441-2.745-6.737-5.171-15.423-7.2-26.605-4.578-25.136-7.2-62.909-7.2-119.648a297.541,297.541,0,0,1,7.2-63.185c2.1-9.618,4.546-18.9,7.2-27.755,3.25-10.84,6.811-21.033,10.405-30.359,2.409-6.271,4.842-12.157,7.2-17.591,10.91-25.085,20.41-40.625,20.41-40.625S444.092,161.3,444.092,255.015Z" transform="translate(-179.439 -75.5)" fill="#f2f2f2"/><g transform="translate(184.481 40.625)" opacity="0.1"><path d="M383.528,142.3V438.156h-7.2V159.894C378.734,153.623,381.167,147.738,383.528,142.3Z" transform="translate(-376.325 -142.303)"/></g><ellipse cx="28.815" cy="26.191" rx="28.815" ry="26.191" transform="translate(183.402 90.94)" fill="#3f3d56"/><path d="M446.666,611.23c-6.407-14.335-14.633-16.808-20.01-16.593v-2.323H342.614v2.323c-5.377-.215-13.6,2.258-20.01,16.593-10.405,23.281,6.4,63.294,6.4,63.294s-8.983-55.806,20.847-56.173a34.351,34.351,0,0,0,9.358,7.717v15.009h48.172V627.435a34.719,34.719,0,0,0,12.034-9.083c29.829.367,20.846,56.173,20.846,56.173S457.072,634.511,446.666,611.23Z" transform="translate(-174.061 -278.026)" fill="#f33"/><ellipse cx="22.411" cy="20.371" rx="22.411" ry="20.371" transform="translate(190.262 96.76)" fill="#f33"/><path d="M982.348,276.46H981.01c.2,27.417,24.691,49.556,54.855,49.587V324.83c-29.426-.029-53.32-21.624-53.518-48.37Z" transform="translate(-323.163 -154.251)" fill="#f33"/><path d="M945.348,276.46H944.01c.212,39.84,35.779,72.046,79.611,72.087v-1.216C980.529,347.287,945.563,315.627,945.348,276.46Z" transform="translate(-310.918 -154.251)" fill="#f33"/><path d="M907.338,276.46H906c.167,52.518,47.222,95.2,105.041,95.2V370.44C953.958,370.44,907.505,328.309,907.338,276.46Z" transform="translate(-298.338 -154.251)" fill="#f33"/></svg>